<?xml version="1.0" encoding="utf-8"?>
<!-- Generator: Adobe Illustrator 15.0.2, SVG Export Plug-In . SVG Version: 6.00 Build 0)  -->
<!DOCTYPE svg PUBLIC "-//W3C//DTD SVG 1.1//EN" "http://www.w3.org/Graphics/SVG/1.1/DTD/svg11.dtd">
<svg version="1.1" id="Layer_1" xmlns="http://www.w3.org/2000/svg" xmlns:xlink="http://www.w3.org/1999/xlink" x="0px" y="0px"
	 width="18.084px" height="18.012px" viewBox="0 0 18.084 18.012" enable-background="new 0 0 18.084 18.012" xml:space="preserve">
<g>
	<path fill="#FFFFFF" stroke="#000000" stroke-width="0.5" stroke-miterlimit="10" d="M16.779,5.693
		c-1.298-2.981-4.265-5.068-7.723-5.068c-3.72,0-6.841,2.424-7.961,5.768C4.552,8.592,13.32,8.181,16.779,5.693z"/>
	<path fill="#5CCBF0" stroke="#000000" stroke-width="0.5" stroke-miterlimit="10" d="M17.271,10.905
		c0.135-0.598,0.217-1.211,0.217-1.849c0-1.198-0.257-2.333-0.708-3.363C13.32,8.181,4.552,8.592,1.096,6.393
		C0.814,7.234,0.625,8.118,0.625,9.057c0,0.75,0.13,1.464,0.312,2.153C4.858,13.693,13.569,13.185,17.271,10.905z"/>
	<path fill="#FFFFFF" stroke="#000000" stroke-width="0.5" stroke-miterlimit="10" d="M0.937,11.21
		c0.958,3.606,4.211,6.277,8.12,6.277c4.02,0,7.368-2.816,8.214-6.582C13.569,13.185,4.858,13.693,0.937,11.21z"/>
</g>
</svg>
